<mxfile host="app.diagrams.net" agent="Mozilla/5.0 (Macintosh; Intel Mac OS X 10_15_7) AppleWebKit/537.36 (KHTML, like Gecko) Chrome/133.0.0.0 Safari/537.36" version="26.0.16">
  <diagram name="Page-1" id="LAexj2FGm6gr54nlZhoL">
    <mxGraphModel grid="1" page="1" gridSize="10" guides="1" tooltips="1" connect="1" arrows="1" fold="1" pageScale="1" pageWidth="827" pageHeight="1169" math="0" shadow="0">
      <root>
        <mxCell id="0" />
        <mxCell id="1" parent="0" />
        <mxCell id="ac5kx-ocTj1KohsMuiEZ-1" value="eDischarge" style="rounded=1;whiteSpace=wrap;html=1;fillColor=#d5e8d4;strokeColor=#82b366;" vertex="1" parent="1">
          <mxGeometry x="-100" y="190" width="740" height="60" as="geometry" />
        </mxCell>
        <mxCell id="ac5kx-ocTj1KohsMuiEZ-3" value="&lt;div&gt;&lt;b&gt;Discharge or Encounter&lt;br&gt;&lt;/b&gt;HL7 v2 ORU_R01 or ADT_A04&lt;/div&gt;" style="rounded=1;whiteSpace=wrap;html=1;fillColor=#f8cecc;strokeColor=#b85450;" vertex="1" parent="1">
          <mxGeometry x="200" y="330" width="140" height="60" as="geometry" />
        </mxCell>
        <mxCell id="ac5kx-ocTj1KohsMuiEZ-4" value="&lt;b&gt;NHS Data Model and Dictionary&lt;/b&gt;" style="rounded=1;whiteSpace=wrap;html=1;fillColor=#dae8fc;strokeColor=#6c8ebf;" vertex="1" parent="1">
          <mxGeometry x="200" y="400" width="140" height="60" as="geometry" />
        </mxCell>
        <mxCell id="ac5kx-ocTj1KohsMuiEZ-5" value="&lt;b&gt;NHS England Transfer of Care&lt;/b&gt;" style="rounded=1;whiteSpace=wrap;html=1;fillColor=#dae8fc;strokeColor=#6c8ebf;" vertex="1" parent="1">
          <mxGeometry x="350" y="260" width="140" height="60" as="geometry" />
        </mxCell>
        <mxCell id="ac5kx-ocTj1KohsMuiEZ-6" value="&lt;b&gt;NHS England GP Connect and IM1&lt;/b&gt;" style="rounded=1;whiteSpace=wrap;html=1;fillColor=#dae8fc;strokeColor=#6c8ebf;" vertex="1" parent="1">
          <mxGeometry x="500" y="260" width="140" height="60" as="geometry" />
        </mxCell>
        <mxCell id="ac5kx-ocTj1KohsMuiEZ-7" value="&lt;b&gt;HL7 UK Core (FHIR)&lt;/b&gt;" style="rounded=1;whiteSpace=wrap;html=1;fillColor=#f8cecc;strokeColor=#b85450;" vertex="1" parent="1">
          <mxGeometry x="350" y="330" width="140" height="60" as="geometry" />
        </mxCell>
        <mxCell id="ac5kx-ocTj1KohsMuiEZ-8" value="&lt;b&gt;IHE XDS/MHD&lt;/b&gt;" style="rounded=1;whiteSpace=wrap;html=1;fillColor=#e1d5e7;strokeColor=#9673a6;" vertex="1" parent="1">
          <mxGeometry x="50" y="260" width="140" height="60" as="geometry" />
        </mxCell>
        <mxCell id="ac5kx-ocTj1KohsMuiEZ-9" value="&lt;b&gt;HL7 Europe Hospital Discharge Report&amp;nbsp;&lt;/b&gt;&lt;br&gt;FHIR Document" style="rounded=1;whiteSpace=wrap;html=1;fillColor=#f8cecc;strokeColor=#b85450;" vertex="1" parent="1">
          <mxGeometry x="50" y="330" width="140" height="60" as="geometry" />
        </mxCell>
        <mxCell id="ac5kx-ocTj1KohsMuiEZ-10" value="&lt;b&gt;PRSB Referral Standards&lt;/b&gt;" style="rounded=1;whiteSpace=wrap;html=1;fillColor=#ffe6cc;strokeColor=#d79b00;" vertex="1" parent="1">
          <mxGeometry x="50" y="470" width="140" height="60" as="geometry" />
        </mxCell>
        <mxCell id="ac5kx-ocTj1KohsMuiEZ-11" value="&lt;b&gt;PRSB Referral Standards&lt;/b&gt;" style="rounded=1;whiteSpace=wrap;html=1;fillColor=#ffe6cc;strokeColor=#d79b00;" vertex="1" parent="1">
          <mxGeometry x="200" y="470" width="140" height="60" as="geometry" />
        </mxCell>
        <mxCell id="ac5kx-ocTj1KohsMuiEZ-12" value="&lt;b&gt;NHS Data Model and Dictionary&lt;/b&gt;" style="rounded=1;whiteSpace=wrap;html=1;fillColor=#dae8fc;strokeColor=#6c8ebf;" vertex="1" parent="1">
          <mxGeometry x="50" y="400" width="140" height="60" as="geometry" />
        </mxCell>
        <mxCell id="ac5kx-ocTj1KohsMuiEZ-13" value="&lt;b&gt;NHS Data Model and Dictionary&lt;/b&gt;" style="rounded=1;whiteSpace=wrap;html=1;fillColor=#dae8fc;strokeColor=#6c8ebf;" vertex="1" parent="1">
          <mxGeometry x="500" y="400" width="140" height="60" as="geometry" />
        </mxCell>
        <mxCell id="ac5kx-ocTj1KohsMuiEZ-14" value="&lt;b&gt;NHS England National Record Locator&lt;/b&gt;" style="rounded=1;whiteSpace=wrap;html=1;fillColor=#dae8fc;strokeColor=#6c8ebf;" vertex="1" parent="1">
          <mxGeometry x="-100" y="260" width="140" height="60" as="geometry" />
        </mxCell>
        <mxCell id="ac5kx-ocTj1KohsMuiEZ-15" value="&lt;b&gt;HL7 UK Core (FHIR)&lt;/b&gt;" style="rounded=1;whiteSpace=wrap;html=1;fillColor=#f8cecc;strokeColor=#b85450;" vertex="1" parent="1">
          <mxGeometry x="-100" y="330" width="140" height="60" as="geometry" />
        </mxCell>
      </root>
    </mxGraphModel>
  </diagram>
</mxfile>
